<?xml version="1.0" standalone="no"?>
<!DOCTYPE svg PUBLIC "-//W3C//DTD SVG 20010904//EN"
 "http://www.w3.org/TR/2001/REC-SVG-20010904/DTD/svg10.dtd">
<svg version="1.0" xmlns="http://www.w3.org/2000/svg"
 width="512.000000pt" height="512.000000pt" viewBox="0 0 512.000000 512.000000"
 preserveAspectRatio="xMidYMid meet">
<metadata>
Created by potrace 1.11, written by Peter Selinger 2001-2013
</metadata>
<g transform="translate(0.000000,512.000000) scale(0.100000,-0.100000)"
fill="#000000" stroke="none">
<path d="M2537 5091 c-9 -16 -42 -51 -73 -77 -66 -57 -66 -72 0 -139 24 -24
49 -59 55 -77 l11 -33 -37 42 c-46 52 -102 77 -152 68 -111 -21 -126 -80 -38
-154 16 -14 38 -38 48 -55 l18 -29 12 26 c10 22 8 31 -10 60 -23 38 -20 47 18
47 35 -1 71 -28 52 -39 -10 -6 -11 -14 -3 -27 7 -13 5 -21 -9 -33 -23 -19 -16
-57 12 -66 15 -5 17 -10 8 -26 -5 -11 -7 -28 -4 -39 7 -22 -28 -50 -61 -50
-28 0 -84 31 -84 47 0 6 -9 14 -19 18 -11 3 -22 12 -25 20 -3 8 -14 15 -25 15
-11 0 -21 5 -23 12 -2 6 -13 12 -24 13 -10 1 -27 5 -36 9 -9 4 -21 5 -27 2 -5
-4 -12 -2 -15 3 -7 11 -95 11 -102 -1 -3 -4 -14 -8 -24 -8 -10 0 -26 -7 -34
-16 -9 -9 -23 -17 -32 -18 -9 -1 -19 -8 -24 -16 -7 -11 -11 -10 -25 3 -20 20
-58 22 -74 3 -6 -7 -22 -12 -35 -11 -14 2 -32 -5 -41 -15 -10 -11 -30 -22 -47
-25 -17 -4 -34 -17 -40 -30 -6 -13 -19 -25 -29 -28 -10 -3 -24 -18 -31 -34 -7
-15 -23 -36 -35 -46 -13 -10 -23 -29 -23 -41 0 -13 -7 -38 -16 -55 -14 -28
-14 -37 -4 -59 7 -15 12 -39 11 -53 -1 -15 5 -33 14 -40 9 -8 21 -20 28 -27
36 -39 87 -82 97 -82 5 0 18 10 30 22 23 25 25 18 9 -27 -16 -45 -7 -70 55
-152 51 -67 94 -164 101 -229 1 -14 11 -31 21 -39 15 -11 17 -16 7 -26 -18
-18 -16 -68 2 -75 13 -5 11 -11 -10 -30 -32 -29 -32 -42 0 -50 23 -6 20 -10
-46 -50 -96 -59 -158 -109 -255 -204 -192 -188 -322 -434 -380 -715 -27 -132
-25 -404 4 -536 24 -113 80 -267 129 -357 35 -66 102 -170 104 -162 0 3 2 33
3 67 2 55 6 64 33 87 27 23 30 31 26 68 -3 32 1 52 18 78 l21 34 20 -23 c10
-14 23 -31 28 -40 7 -12 32 -16 131 -18 94 -1 126 -5 138 -17 8 -9 12 -18 8
-22 -3 -3 -58 -6 -121 -6 -105 -1 -114 -2 -106 -18 5 -9 16 -22 24 -30 9 -7
16 -18 16 -25 0 -18 -79 -87 -91 -80 -5 4 -18 24 -29 46 -11 21 -24 39 -29 39
-29 0 -48 -62 -50 -170 l-1 -35 -19 29 -20 30 -6 -30 c-19 -95 -31 -136 -58
-198 l-31 -69 24 -19 c19 -16 34 -18 94 -13 39 3 85 8 101 10 17 2 57 7 90 11
70 7 76 11 52 28 -17 13 -23 27 -9 24 12 -3 124 13 163 23 33 8 37 13 43 52 4
23 9 57 12 75 8 51 12 109 13 190 l1 73 23 -26 c21 -25 22 -32 15 -123 -7
-109 -16 -180 -23 -191 -2 -4 -7 -23 -10 -41 -8 -43 -12 -49 -33 -48 -9 0 -30
-2 -47 -5 -16 -3 -49 -8 -72 -12 -24 -4 -43 -10 -43 -13 0 -6 102 -77 168
-117 9 -5 40 -25 69 -43 155 -95 438 -210 583 -236 14 -2 41 -7 60 -10 19 -3
49 -9 65 -12 55 -11 319 -13 389 -3 145 21 289 97 325 173 12 23 21 54 21 69
0 26 0 26 -36 11 -159 -67 -460 -9 -792 152 -210 102 -390 222 -549 369 l-73
67 0 85 c0 84 0 85 -22 79 -13 -3 -42 -9 -64 -12 -42 -6 -42 -6 -82 53 -112
165 -164 322 -163 494 1 401 251 740 651 883 41 15 76 27 78 26 1 -1 15 1 30
4 100 21 291 22 392 2 183 -35 346 -118 473 -240 26 -25 50 -46 52 -46 3 0 5
9 5 20 0 23 4 24 31 10 11 -6 19 -21 19 -36 0 -14 5 -34 10 -44 8 -16 8 -18
-5 -14 -9 4 0 -17 21 -47 182 -267 214 -649 79 -936 -48 -102 -87 -157 -169
-239 -81 -80 -154 -130 -273 -186 -146 -69 -178 -75 -348 -69 -82 3 -189 5
-237 3 -75 -2 -88 -5 -88 -20 0 -27 149 -114 325 -189 105 -44 120 -43 110 6
-3 18 -1 21 13 16 203 -80 424 -115 534 -85 109 31 323 232 441 415 271 423
296 944 66 1384 -104 200 -286 405 -457 518 -52 34 -99 64 -105 66 -9 3 -8 9
2 21 13 16 12 20 -14 40 -24 19 -26 24 -12 29 22 8 23 63 1 75 -15 8 -14 11 6
25 12 9 24 26 25 39 8 70 48 167 91 219 25 29 51 65 58 79 15 28 12 86 -5 107
-9 10 -8 13 5 13 9 0 16 -4 16 -9 0 -21 42 -18 67 5 14 13 29 24 34 24 4 0 10
9 14 19 3 11 14 23 24 26 24 7 41 47 30 67 -6 11 -4 20 6 28 20 16 19 64 0 80
-9 7 -14 19 -11 27 8 20 -11 61 -31 67 -10 3 -19 16 -20 28 -2 24 -27 48 -50
48 -7 0 -13 7 -13 15 0 15 -47 51 -56 42 -3 -2 -16 6 -30 20 -15 15 -33 23
-43 20 -10 -2 -26 2 -36 9 -25 19 -55 18 -77 -3 -10 -9 -18 -11 -18 -6 0 6
-12 16 -27 22 -16 6 -35 15 -43 20 -33 20 -66 31 -90 30 -50 -1 -145 -22 -161
-35 -8 -8 -21 -14 -28 -14 -6 0 -32 -20 -56 -45 -55 -54 -85 -64 -132 -41 -28
14 -33 19 -23 31 6 8 9 23 5 34 -4 12 0 30 9 43 20 29 21 68 1 68 -17 0 -20
26 -4 35 6 5 4 11 -7 19 -15 11 -13 14 19 29 52 25 92 0 52 -33 -18 -15 -20
-66 -3 -76 7 -4 16 0 22 11 6 10 32 39 59 63 51 49 58 76 30 111 -21 25 -86
40 -130 31 -36 -8 -92 -51 -111 -86 -18 -34 -22 -30 -9 11 5 19 32 57 59 85
26 27 48 58 48 67 0 10 -26 42 -58 73 -32 30 -65 65 -73 78 l-14 23 -18 -30z
m41 -467 c1 -16 3 -40 3 -54 0 -14 5 -30 11 -37 11 -13 2 -53 -12 -53 -5 0 -1
-14 8 -31 17 -29 16 -31 -7 -50 -13 -10 -18 -19 -12 -19 6 0 17 -12 23 -26 11
-23 10 -29 -10 -44 -18 -15 -19 -19 -7 -24 21 -8 19 -53 -2 -65 -10 -6 -13
-11 -7 -11 21 0 25 -32 8 -51 -10 -11 -12 -19 -6 -19 18 0 14 -30 -4 -37 -19
-7 -37 17 -23 33 6 7 4 15 -5 23 -16 13 -10 51 8 51 6 0 3 5 -6 11 -22 12 -24
57 -4 65 12 5 11 9 -5 25 -10 10 -19 24 -19 29 0 6 9 19 19 29 14 14 16 21 7
24 -21 8 -26 46 -9 63 14 13 13 17 -2 34 -16 18 -16 21 -2 43 11 18 13 27 5
35 -8 8 -8 15 2 26 7 9 10 22 7 30 -6 16 12 38 28 33 5 -2 11 -17 13 -33z
m-574 -40 c7 -18 -21 -31 -36 -16 -15 15 -2 43 16 36 8 -3 17 -12 20 -20z
m1144 -1 c5 -17 -26 -29 -40 -15 -6 6 -7 15 -3 22 9 14 37 9 43 -7z m-1289
-32 c6 -10 7 -22 3 -26 -4 -4 3 -5 16 -2 16 4 25 -1 33 -15 14 -26 5 -48 -20
-48 -21 0 -45 32 -33 45 4 4 0 6 -8 5 -37 -6 -50 1 -50 23 0 13 3 27 7 30 13
13 42 7 52 -12z m98 3 c9 -23 -25 -48 -43 -33 -10 8 -11 16 -3 30 12 23 37 25
46 3z m1240 0 c7 -19 -20 -49 -36 -40 -12 8 -15 39 -4 49 12 12 33 7 40 -9z
m111 -10 c2 -11 -4 -27 -13 -34 -13 -11 -19 -10 -35 5 -15 14 -17 22 -9 37 14
26 53 20 57 -8z m-1518 -39 c0 -18 -7 -26 -26 -31 -41 -10 -63 44 -27 65 25
13 53 -5 53 -34z m1598 8 c4 -26 -22 -46 -47 -38 -25 8 -32 35 -13 57 18 21
56 9 60 -19z m-150 8 c8 -4 12 -19 10 -32 -2 -18 -9 -24 -28 -24 -28 0 -39 27
-20 50 14 17 20 18 38 6z m-1026 -36 c106 -37 172 -45 221 -26 16 6 29 11 31
11 1 0 3 -19 4 -42 1 -24 4 -63 7 -88 3 -25 7 -67 10 -95 3 -27 9 -75 14 -105
9 -54 9 -56 -25 -90 -33 -35 -34 -36 -17 -60 10 -14 30 -38 44 -53 27 -27 44
-67 30 -67 -4 0 -13 10 -20 23 -29 54 -122 76 -161 37 -28 -28 -26 -37 20 -80
22 -21 40 -43 40 -49 0 -6 5 -11 11 -11 11 0 8 40 -5 71 -10 24 22 33 50 14
19 -12 22 -21 17 -45 -4 -21 -2 -30 7 -30 24 0 -18 -36 -55 -47 -65 -20 -132
12 -131 62 1 26 -3 30 -24 30 -22 0 -25 -5 -26 -34 0 -40 -36 -70 -92 -78 -29
-4 -41 0 -57 17 -16 18 -17 23 -5 30 8 6 10 10 5 10 -15 0 -13 44 4 63 20 24
33 10 25 -28 -9 -48 9 -50 39 -4 34 51 34 74 0 96 -53 35 -93 22 -117 -38 -9
-22 -18 -39 -20 -39 -10 0 4 80 18 109 18 34 15 46 -20 73 -13 11 -24 34 -28
61 -4 25 -23 78 -43 118 -22 47 -35 89 -36 115 0 82 93 204 155 204 15 0 74
-16 130 -35z m880 5 c44 -37 88 -121 88 -171 0 -22 -15 -68 -36 -112 -20 -42
-38 -95 -41 -119 -4 -32 -14 -50 -37 -69 l-30 -26 17 -39 c20 -43 30 -104 19
-104 -5 0 -12 15 -17 32 -6 18 -22 39 -37 47 -24 14 -30 14 -61 -1 -48 -23
-54 -47 -22 -93 14 -21 25 -42 25 -46 0 -5 4 -9 9 -9 14 0 19 31 10 57 -10 28
5 38 26 17 10 -10 14 -27 11 -45 -2 -15 0 -29 5 -31 17 -6 -31 -48 -53 -48
-12 0 -42 10 -66 21 -38 19 -43 25 -39 47 7 35 -1 52 -23 52 -23 0 -35 -17
-35 -49 0 -35 -57 -63 -114 -57 -53 6 -84 31 -71 56 5 9 6 26 3 38 -4 16 1 24
20 33 14 6 33 9 42 5 14 -5 14 -9 2 -33 -11 -24 -14 -38 -8 -58 0 -2 21 18 46
44 51 55 56 81 19 106 -40 26 -90 12 -138 -38 -32 -34 -37 -36 -31 -16 7 22
23 44 68 91 25 26 21 53 -13 81 l-30 25 15 99 c8 54 17 139 21 188 3 50 8 93
10 97 2 3 19 2 37 -3 55 -16 109 -9 202 26 117 43 159 44 207 5z m-1384 8 c28
-28 1 -75 -36 -63 -26 8 -34 41 -15 60 18 18 35 19 51 3z m1740 0 c17 -17 15
-43 -4 -59 -31 -26 -70 25 -44 56 15 18 32 19 48 3z m-118 -67 c65 -46 125
-116 138 -158 16 -53 5 -83 -49 -135 -47 -46 -77 -107 -80 -163 -3 -49 -10
-65 -49 -103 -16 -17 -30 -38 -30 -46 0 -11 -9 -16 -29 -16 -30 0 -45 -19 -35
-45 8 -20 -13 -45 -39 -45 -25 0 -62 41 -46 51 6 4 12 18 12 33 0 14 6 31 13
37 23 19 27 3 8 -30 -13 -22 -15 -34 -8 -41 14 -14 94 72 95 102 l0 23 11 -22
11 -22 29 29 c21 21 31 44 38 84 11 66 45 135 99 200 23 26 41 58 41 70 -1 37
-36 100 -84 145 l-46 45 -23 -22 c-26 -25 -47 -28 -65 -10 -16 16 -15 38 4 59
18 20 34 16 84 -20z m-1458 4 c8 -19 8 -28 -2 -40 -32 -38 -94 1 -70 45 16 29
58 26 72 -5z m-224 3 c7 -7 12 -18 12 -24 0 -14 -27 -44 -40 -44 -18 0 -39 31
-33 48 12 32 40 41 61 20z m1872 -7 c7 -15 5 -24 -8 -41 -16 -19 -22 -21 -40
-11 -24 13 -29 40 -10 59 18 18 46 14 58 -7z m-1782 -45 c-47 -45 -88 -117
-88 -154 0 -17 42 -77 71 -102 21 -18 59 -105 70 -158 8 -45 20 -71 40 -91
l27 -28 22 61 c13 34 24 63 26 65 3 4 47 -45 73 -82 12 -17 9 -17 -27 4 -34
20 -42 21 -56 10 -27 -23 -19 -59 26 -107 45 -49 69 -44 42 9 -17 32 -12 46
10 28 7 -6 14 -23 14 -37 0 -15 5 -30 12 -34 15 -9 0 -28 -36 -48 -27 -14 -51
9 -56 53 -2 24 -8 30 -28 30 -18 0 -29 8 -37 29 -7 15 -24 37 -37 47 -24 19
-30 35 -40 110 -9 59 -22 85 -75 143 -28 31 -53 67 -57 80 -12 51 38 141 108
193 47 34 46 28 -4 -21z m-144 -22 c9 -8 16 -19 16 -24 0 -11 -29 -40 -40 -40
-13 0 -40 30 -40 44 0 16 20 36 36 36 7 0 20 -7 28 -16z m1976 -3 c5 -11 7
-26 4 -35 -13 -34 -65 -27 -70 10 -6 41 46 61 66 25z m-1730 -6 c7 -9 10 -25
6 -40 -6 -22 -11 -26 -39 -23 -27 3 -33 8 -35 32 -5 43 41 64 68 31z m1494 -7
c15 -24 -3 -52 -36 -56 -31 -4 -51 33 -34 61 14 22 55 19 70 -5z m-1770 -64
c9 -8 16 -19 16 -24 0 -11 -29 -40 -40 -40 -11 0 -40 29 -40 40 0 11 29 40 40
40 5 0 16 -7 24 -16z m2031 -14 c7 -23 -10 -50 -31 -50 -25 0 -45 30 -34 51
14 26 57 25 65 -1z m-1735 -11 c9 -15 8 -24 -1 -35 -18 -21 -57 -18 -64 6 -14
44 44 69 65 29z m1445 -14 c0 -25 -4 -31 -27 -33 -19 -2 -28 2 -33 18 -8 27
12 52 39 48 16 -2 21 -10 21 -33z m-1727 -47 c26 -26 8 -58 -33 -58 -19 0 -29
38 -15 55 15 18 32 19 48 3z m2001 -5 c12 -23 -4 -53 -29 -53 -25 0 -41 29
-29 52 12 23 45 23 58 1z m-1690 -11 c11 -20 -3 -42 -26 -42 -19 0 -34 35 -21
48 17 17 36 15 47 -6z m1376 -12 c0 -18 -6 -26 -21 -28 -26 -4 -40 24 -23 45
18 21 44 11 44 -17z m264 -38 c7 -13 6 -23 -1 -30 -28 -28 -63 3 -38 33 16 20
27 19 39 -3z m-1909 -11 c0 -11 9 -21 21 -24 13 -4 19 -12 17 -23 -5 -26 -28
-29 -35 -5 -3 12 -13 21 -24 21 -22 0 -33 16 -25 35 8 22 46 19 46 -4z m299
-5 c8 -10 8 -16 -2 -24 -17 -14 -42 2 -34 22 8 20 21 20 36 2z m1304 0 c8 -19
-15 -37 -32 -26 -17 10 -7 40 13 40 7 0 16 -6 19 -14z m262 -26 c4 -6 1 -18
-6 -26 -11 -13 -14 -13 -27 0 -8 8 -11 19 -8 25 9 14 33 14 41 1z m-271 -157
c16 -33 16 -33 -7 -24 -23 9 -55 -1 -69 -23 -4 -6 -10 -8 -13 -4 -4 3 10 25
31 47 20 23 38 40 39 39 1 -2 10 -18 19 -35z m-678 -209 c-3 -9 -20 -14 -48
-14 l-43 1 32 14 c17 7 37 24 44 37 l14 23 3 -23 c2 -13 1 -30 -2 -38z m58 41
c3 -8 20 -24 38 -35 l33 -20 -41 0 c-40 0 -42 1 -46 35 -4 36 5 47 16 20z
m-491 -74 c-9 -2 -25 7 -35 19 -29 36 -21 43 17 13 28 -22 32 -29 18 -32z
m807 15 c0 0 -26 0 -57 1 -115 3 -112 3 -70 18 21 7 41 16 44 18 4 5 83 -31
83 -37z m146 16 c-7 -22 -32 -36 -47 -26 -5 3 3 16 19 29 30 26 37 26 28 -3z
m-736 3 c17 -9 30 -17 30 -18 0 -1 -32 -2 -70 -3 -39 0 -70 1 -70 3 0 4 62 31
73 32 4 1 21 -6 37 -14z m835 -93 c-2 -2 -11 3 -20 12 -9 8 -25 22 -36 30 -15
10 -19 20 -14 36 6 20 10 18 41 -26 19 -26 32 -49 29 -52z m-1125 63 c0 -15
-50 -78 -57 -72 -2 3 6 25 18 50 21 43 39 53 39 22z m617 -221 c1 -5 -6 -20
-17 -34 -20 -25 -20 -25 -20 -2 0 12 -4 22 -10 22 -17 0 -11 18 8 23 22 6 35
3 39 -9z m-193 -79 c5 -13 10 -13 41 2 48 23 62 7 67 -75 4 -53 1 -65 -13 -73
-24 -12 -33 4 -35 61 -1 25 -2 51 -3 58 -1 8 -10 12 -23 10 -24 -3 -23 -2 -27
-104 -1 -19 -40 -43 -42 -26 0 4 -2 33 -4 66 -3 32 -7 61 -10 64 -5 5 25 31
36 32 4 0 9 -7 13 -15z m-110 -20 c19 -14 19 -15 1 -35 -16 -18 -20 -19 -27
-5 -13 22 -38 18 -38 -6 0 -27 56 -83 72 -73 7 4 4 -2 -6 -14 -24 -28 -39 -28
-70 1 -23 20 -30 40 -27 75 1 14 58 72 70 72 3 0 15 -7 25 -15z m432 0 c16
-12 17 -16 4 -24 -12 -8 -11 -14 8 -34 13 -14 20 -30 17 -40 -11 -27 -31 -26
-49 4 -17 29 -40 38 -51 19 -10 -16 -45 -12 -52 6 -7 18 12 64 27 64 5 0 10
-9 10 -19 0 -26 13 -33 46 -25 l26 7 -32 20 c-29 19 -31 22 -14 28 29 11 38
10 60 -6z m-588 -57 c2 -10 -6 -30 -17 -44 -28 -35 -27 -43 9 -55 25 -9 28
-13 16 -25 -22 -21 -54 -17 -81 11 -32 31 -32 66 1 105 29 34 66 38 72 8z
m949 -68 c-19 -29 -43 -53 -59 -59 -37 -13 -26 -47 13 -43 14 2 88 -87 76 -91
-23 -7 -42 5 -69 44 -22 31 -34 39 -58 39 -16 0 -30 2 -30 4 0 2 -2 11 -6 19
-3 10 4 16 25 20 22 5 37 18 57 54 31 53 41 63 66 63 13 0 11 -9 -15 -50z
m-1078 -26 c24 -45 28 -60 20 -76 -8 -15 -14 -17 -22 -9 -18 18 -25 13 -42
-33 -18 -46 -13 -44 -114 -63 -34 -6 -38 -9 -57 -48 -40 -85 -185 -33 -183 67
l0 33 15 -37 c11 -25 25 -40 46 -47 44 -16 103 -14 118 4 7 9 8 15 2 15 -5 0
-8 9 -5 19 5 19 14 23 97 37 34 6 37 8 23 19 -10 7 -17 18 -17 25 0 7 -12 28
-26 47 -21 27 -23 37 -14 48 21 25 36 17 60 -34 25 -55 42 -67 61 -45 13 16 1
49 -29 86 -18 22 -9 48 17 48 13 0 29 -17 50 -56z m664 37 c34 -17 35 -19 14
-25 -35 -9 -52 -7 -73 9 -16 13 -17 16 -4 25 20 13 20 13 63 -9z m536 -15 c15
-16 8 -35 -13 -32 -7 1 -21 10 -31 20 -17 17 -19 16 -36 -11 -18 -26 -18 -28
-1 -32 21 -4 42 -20 42 -32 0 -15 -48 -10 -54 6 -4 11 -11 13 -30 6 -38 -15
-37 -3 1 50 34 47 37 50 72 44 20 -3 42 -12 50 -19z m-1414 -86 c13 -20 14
-69 2 -77 -6 -3 -7 -1 -4 4 4 6 -6 23 -21 38 -23 23 -33 26 -69 22 -30 -3 -43
-1 -43 8 0 20 22 33 60 37 36 3 58 -6 75 -32z m-111 -65 c23 -31 32 -52 28
-67 -5 -20 -6 -20 -19 -2 -7 10 -27 34 -44 52 -18 19 -29 39 -25 47 9 25 23
17 60 -30z m1596 6 c0 -10 14 -24 32 -32 44 -19 46 -43 9 -89 -17 -22 -31 -44
-31 -49 0 -14 -16 -14 -41 -1 -26 14 -25 18 20 69 21 25 37 50 34 57 -10 27
-32 20 -73 -22 -36 -37 -45 -42 -62 -33 -20 11 -20 11 0 32 63 69 72 81 72 88
0 4 9 5 20 2 11 -3 20 -13 20 -22z m151 -169 c14 -5 37 -26 52 -45 l26 -35
-26 -7 c-14 -3 -45 -26 -69 -50 -27 -28 -49 -43 -58 -39 -14 5 -14 8 0 29 15
23 14 25 -20 47 -43 28 -45 50 -7 88 29 30 51 32 102 12z m-1941 -142 c0 -13
-10 -24 -25 -30 -14 -5 -25 -14 -25 -19 0 -8 36 -26 50 -24 3 0 20 3 38 6 29
6 32 4 32 -17 0 -33 -45 -49 -87 -31 -34 15 -43 31 -43 84 0 44 5 51 37 51 16
0 23 -6 23 -20z m2109 6 c7 -8 8 -16 4 -19 -4 -3 -35 -19 -68 -37 -33 -18 -68
-41 -78 -53 -16 -19 -19 -19 -34 -4 -24 24 -11 41 69 86 81 45 90 47 107 27z
m56 -105 c3 -5 1 -13 -5 -16 -14 -8 -40 13 -40 32 0 10 4 11 19 3 11 -5 22
-14 26 -19z m-64 -1 c28 -16 13 -34 -54 -68 -49 -25 -60 -27 -75 -16 -16 13
-16 15 3 30 11 8 37 22 58 31 20 8 37 19 37 24 0 12 7 11 31 -1z m-2128 -70
c15 -16 27 -37 27 -47 0 -16 -1 -16 -13 0 -17 25 -65 31 -93 12 -13 -8 -24
-19 -24 -24 0 -5 23 -17 52 -27 38 -14 52 -25 55 -41 4 -28 4 -28 -88 2 -92
31 -115 46 -106 69 7 17 17 17 66 -2 11 -4 12 1 8 20 -5 17 -1 30 11 40 41 36
72 35 105 -2z m2170 -71 c29 -31 32 -45 17 -69 -15 -24 -34 4 -32 45 3 38 -4
42 -32 22 -18 -13 -18 -15 3 -34 37 -34 32 -93 -8 -93 -28 0 -91 69 -86 94 2
12 4 27 4 34 1 7 5 11 11 7 5 -3 19 4 30 15 26 26 55 20 93 -21z m-2374 -90
c6 -41 7 -42 45 -46 22 -1 47 -10 58 -19 20 -19 26 -42 6 -27 -7 6 -37 13 -65
16 -41 5 -53 3 -53 -8 0 -8 17 -16 43 -20 23 -4 52 -13 64 -21 12 -8 24 -14
25 -14 2 0 12 23 23 50 11 28 22 50 26 50 16 0 17 -49 1 -95 -21 -64 -20 -62
-36 -40 -8 11 -37 24 -67 30 -30 7 -61 14 -69 16 -10 3 -16 -5 -18 -23 -3 -28
5 -33 48 -29 8 1 20 -7 27 -18 10 -16 9 -20 -8 -24 -14 -4 -33 6 -61 31 l-40
36 7 76 c4 41 9 86 11 100 1 14 3 29 3 35 2 24 25 -19 30 -56z m2484 -99 c6
-23 -20 -30 -127 -33 -60 -2 -69 0 -76 18 -7 19 -3 20 48 23 31 2 58 4 59 6 2
1 23 4 47 4 36 2 45 -1 49 -18z m-53 -61 c14 -25 -9 -65 -43 -78 -24 -9 -83
13 -91 35 -4 10 0 11 18 3 28 -13 58 0 82 36 20 30 20 30 34 4z m-1842 -705
l0 -36 -24 23 c-30 28 -30 36 -1 42 12 2 23 5 24 6 0 0 1 -15 1 -35z m-115
-64 c47 -41 87 -101 82 -125 -2 -11 -4 -23 -4 -27 -1 -7 -50 -55 -146 -143
-52 -47 -73 -58 -102 -50 -28 6 -28 6 7 -24 35 -30 35 -30 10 -31 -14 -1 -34
-3 -45 -5 -28 -6 -194 -19 -206 -16 -4 0 6 34 22 74 15 41 31 89 34 108 8 44
13 48 34 23 16 -20 16 -20 16 17 0 27 8 46 25 64 46 50 54 49 88 -5 17 -28 39
-50 48 -50 39 0 94 53 94 91 0 5 -12 22 -27 37 -55 54 -58 61 -37 77 31 23 70
18 107 -15z m979 -320 c-3 -78 -4 -81 -25 -74 -33 9 -150 73 -170 93 -16 16
-12 18 80 29 54 7 102 17 107 22 6 6 10 10 11 10 0 0 -1 -36 -3 -80z m-673
-44 c56 -29 61 -102 10 -149 -37 -34 -80 -33 -120 4 -45 42 -34 114 22 145 31
17 54 17 88 0z m242 -131 c34 -18 54 -71 40 -107 -16 -42 -61 -71 -100 -64
-45 7 -70 33 -78 79 -5 32 -1 40 28 70 38 37 69 43 110 22z m240 -98 c49 -38
48 -111 -3 -151 -30 -23 -50 -25 -99 -10 -21 6 -42 47 -42 82 0 31 29 78 53
85 30 9 75 6 91 -6z"/>
<path d="M2122 3283 c4 -33 19 -39 35 -14 10 16 8 20 -13 30 -24 11 -25 10
-22 -16z"/>
<path d="M3445 2918 c-28 -16 -44 -39 -45 -64 0 -33 9 -34 48 -8 20 14 42 22
49 20 20 -8 16 10 -9 38 -19 22 -26 24 -43 14z"/>
<path d="M3586 2514 c-17 -43 7 -84 28 -48 14 24 14 36 3 52 -13 16 -24 15
-31 -4z"/>
<path d="M2407 2816 l-37 -34 0 -94 c0 -85 -2 -98 -27 -136 -19 -30 -34 -42
-51 -42 -23 0 -23 0 5 30 28 30 29 34 28 128 -1 53 2 107 7 120 10 28 -4 22
-56 -26 -35 -32 -37 -32 -62 -16 -25 17 -26 16 -56 -13 l-30 -30 25 -25 25
-26 33 34 c18 19 37 34 41 34 11 0 10 -163 -1 -192 -5 -13 -23 -37 -40 -54
l-31 -32 33 0 c19 0 69 -14 111 -31 43 -17 90 -31 105 -31 50 0 193 127 210
187 22 75 -17 123 -104 128 -48 2 -61 -1 -79 -19 l-21 -21 -3 39 c-2 21 -1 40
1 42 2 2 18 1 35 -2 23 -5 29 -10 25 -23 -3 -9 15 4 41 29 l47 45 -28 9 c-15
5 -44 20 -63 33 -19 12 -37 23 -40 23 -4 0 -23 -15 -43 -34z m141 -221 c31
-36 30 -94 -3 -129 -13 -14 -30 -26 -38 -26 -21 0 -121 31 -131 41 -6 5 -18 9
-27 9 -28 0 -30 15 -8 41 12 13 32 37 45 52 52 61 114 66 162 12z"/>
<path d="M3300 2811 c0 -10 19 -25 25 -20 1 2 -3 10 -11 17 -8 7 -14 8 -14 3z"/>
<path d="M2800 2670 c-20 -12 -5 -24 16 -12 9 5 12 12 7 15 -5 3 -15 2 -23 -3z"/>
<path d="M2943 2673 c-18 -6 -16 -23 1 -23 17 0 30 16 19 23 -5 2 -14 2 -20 0z"/>
<path d="M3123 2668 c-6 -7 -11 -41 -12 -75 -2 -56 0 -61 17 -56 15 3 18 13
17 44 -1 23 3 39 9 39 18 0 37 -40 31 -63 -6 -22 -6 -22 14 2 26 29 26 43 2
65 -13 12 -27 15 -42 11 -17 -6 -21 -4 -16 7 8 22 -7 42 -20 26z"/>
<path d="M2860 2640 c-14 -11 -19 -20 -12 -20 7 0 12 -15 12 -39 0 -42 20 -60
40 -35 9 10 9 14 1 14 -18 0 -13 51 7 66 15 12 15 13 0 14 -9 0 -18 4 -20 10
-1 5 -14 0 -28 -10z"/>
<path d="M2703 2587 c1 -29 5 -51 10 -49 4 1 11 2 16 2 5 0 7 16 5 36 -2 27 0
35 11 30 7 -2 19 2 25 10 7 8 11 14 9 15 -2 1 -20 3 -41 4 l-36 4 1 -52z"/>
<path d="M2790 2585 c0 -30 3 -55 8 -55 18 1 27 18 26 50 -3 58 -3 60 -19 60
-12 0 -15 -13 -15 -55z"/>
<path d="M2930 2585 c0 -53 10 -69 26 -43 5 7 8 23 7 35 -1 13 -1 32 -2 43 -1
11 -8 20 -16 20 -12 0 -15 -13 -15 -55z"/>
<path d="M2997 2622 c-18 -20 -23 -52 -7 -52 5 0 7 -6 4 -14 -7 -17 26 -29 51
-20 15 6 13 9 -10 18 -24 10 -26 13 -12 24 13 11 19 9 35 -8 l20 -22 7 22 c5
15 2 25 -6 31 -8 4 -14 14 -14 21 0 21 -49 21 -68 0z m42 -23 c-22 -14 -29
-11 -29 11 0 18 3 19 21 9 17 -9 19 -13 8 -20z"/>
<path d="M1950 2423 c-20 -7 -67 -51 -91 -84 -41 -57 -30 -129 20 -129 20 0
71 51 56 57 -25 9 -34 21 -40 55 -7 34 -5 39 19 48 31 11 88 -7 103 -34 8 -14
13 -13 40 10 19 15 29 32 26 40 -12 32 -88 53 -133 37z"/>
<path d="M2147 2391 c-99 -49 -140 -103 -158 -209 -11 -72 -34 -115 -73 -137
-41 -24 -85 -59 -66 -53 8 3 32 -1 52 -8 68 -23 92 -23 123 2 27 21 28 24 10
30 -11 4 -36 13 -55 21 l-34 14 42 40 c34 32 47 38 68 33 18 -5 34 0 54 15 16
11 31 21 33 21 2 0 6 -30 9 -68 5 -62 29 -132 46 -132 4 0 22 13 41 29 l34 28
-21 29 c-26 36 -31 76 -32 242 0 72 -3 132 -7 132 -5 -1 -34 -14 -66 -29z m2
-120 c-1 -92 -2 -98 -20 -94 -11 3 -22 9 -25 14 -3 5 -17 1 -31 -8 l-25 -17 7
35 c21 104 52 169 80 169 12 0 15 -17 14 -99z"/>
<path d="M2481 2296 c-9 -11 -9 -15 1 -19 9 -3 7 -11 -9 -26 -13 -12 -23 -28
-23 -36 0 -17 35 -55 49 -55 20 0 21 20 1 40 -22 22 -26 45 -9 56 15 9 40 -18
42 -44 2 -26 12 -28 26 -5 11 20 -6 59 -38 86 -26 21 -26 21 -40 3z"/>
<path d="M2875 2299 c-10 -15 3 -25 16 -12 7 7 7 13 1 17 -6 3 -14 1 -17 -5z"/>
<path d="M2272 2250 c-12 -11 -22 -29 -22 -39 0 -26 33 -53 55 -45 16 7 16 8
2 19 -9 6 -19 24 -23 39 -6 24 -4 27 17 24 13 -2 26 2 29 7 10 19 -36 15 -58
-5z"/>
<path d="M2375 2260 c-4 -6 -1 -9 7 -8 8 2 14 -10 16 -34 2 -22 -1 -38 -7 -38
-6 0 -11 7 -11 16 0 9 -6 14 -12 12 -7 -3 -13 -13 -13 -23 0 -13 8 -19 28 -19
15 -1 33 1 39 5 14 9 18 70 5 87 -11 15 -43 16 -52 2z"/>
<path d="M2615 2258 c-42 -24 -47 -60 -10 -84 33 -21 50 -9 25 18 -24 26 -27
60 -5 52 8 -4 12 -11 9 -18 -4 -6 1 -4 11 6 9 9 14 21 11 27 -9 14 -16 13 -41
-1z"/>
<path d="M2684 2253 c3 -8 6 -30 6 -49 0 -24 5 -34 15 -34 11 0 15 11 15 40 0
30 4 40 16 40 11 0 15 -8 14 -27 -3 -45 -1 -53 15 -53 11 0 15 11 15 38 0 50
-8 58 -58 59 -34 0 -42 -3 -38 -14z"/>
<path d="M2796 2261 c-4 -5 -1 -13 4 -16 6 -4 10 -19 9 -33 -4 -33 7 -53 24
-46 20 7 7 98 -15 102 -9 2 -19 -1 -22 -7z"/>
<path d="M2869 2263 c-2 -15 3 -98 5 -101 2 -1 9 0 17 3 20 7 13 105 -7 105
-8 0 -14 -3 -15 -7z"/>
<path d="M2960 2263 c-22 -9 -40 -30 -40 -46 0 -26 34 -59 52 -52 16 6 16 9
-2 28 -28 30 -26 56 4 54 14 -1 25 3 26 8 1 12 -19 16 -40 8z"/>
<path d="M2390 2032 c-78 -37 -146 -108 -157 -163 -18 -88 19 -178 99 -242 55
-44 111 -47 168 -8 25 16 56 45 69 63 l24 33 -29 -27 c-44 -41 -76 -45 -127
-15 -93 55 -155 152 -143 224 2 16 5 31 5 35 1 11 62 78 71 78 10 0 10 -197 0
-238 l-8 -32 27 22 c53 44 61 62 62 143 1 54 5 78 14 81 16 6 55 -13 72 -35 7
-9 12 -11 13 -4 0 6 12 25 26 42 l25 30 -33 21 c-43 26 -49 26 -84 -11 l-29
-31 -5 31 -5 30 -55 -27z"/>
<path d="M2792 1871 c-14 -12 -18 -21 -10 -23 7 -3 12 -20 12 -39 1 -27 5 -35
24 -37 21 -3 29 8 15 22 -12 12 -10 46 3 57 11 9 11 14 -1 25 -17 17 -15 17
-43 -5z"/>
<path d="M2590 1863 c-41 -16 -51 -64 -18 -87 29 -21 48 -4 25 22 -21 23 -23
54 -2 46 8 -4 12 -11 9 -18 -4 -6 1 -4 11 6 26 24 10 44 -25 31z"/>
<path d="M2658 1863 c-3 -7 -3 -38 1 -90 1 -7 8 -10 16 -7 21 8 21 104 1 104
-8 0 -16 -3 -18 -7z"/>
<path d="M2715 1853 c4 -10 8 -33 9 -51 0 -17 4 -32 9 -32 4 0 12 0 17 0 9 0
9 22 1 93 -1 4 -10 7 -22 7 -16 0 -19 -4 -14 -17z"/>
<path d="M2882 1814 c1 -30 3 -54 4 -54 1 0 9 7 17 15 10 9 14 26 11 45 -3 17
-1 30 5 30 6 0 11 -5 11 -11 0 -8 5 -8 15 1 21 18 10 28 -29 28 l-35 0 1 -54z"/>
<path d="M2982 1845 c-23 -29 -19 -61 9 -76 31 -16 41 0 18 31 -24 31 -18 60
8 39 12 -10 16 -10 23 1 23 37 -30 41 -58 5z"/>
<path d="M2304 561 c2 -16 0 -33 -3 -38 -3 -4 -48 -8 -100 -8 -85 -1 -95 -3
-112 -24 -19 -23 -24 -75 -13 -117 8 -32 39 -41 137 -40 80 1 87 -1 88 -19 0
-11 2 -63 3 -116 4 -166 47 -203 232 -197 90 2 114 6 136 23 51 39 62 71 64
190 1 61 2 112 3 115 1 3 42 4 93 4 83 -1 94 1 115 22 29 29 32 101 6 133 -16
19 -31 21 -163 26 -192 7 -235 13 -397 56 -93 24 -93 24 -89 -10z m264 -182
c20 -23 39 -45 40 -50 2 -5 -10 -25 -27 -45 -17 -19 -30 -42 -30 -52 1 -14 2
-14 6 -1 5 21 56 49 89 49 29 0 64 -25 64 -45 0 -6 -13 -23 -29 -37 -16 -15
-31 -32 -34 -40 -4 -10 -7 -10 -16 2 -6 9 -7 18 -1 24 18 18 11 38 -12 34 -24
-3 -33 -35 -16 -56 9 -10 9 -18 1 -31 -6 -9 -14 -31 -18 -49 -3 -18 -12 -32
-18 -33 -7 0 -20 -2 -30 -4 -9 -2 -29 0 -45 4 -21 6 -27 13 -27 37 0 16 -6 35
-12 42 -10 10 -10 19 -3 33 6 11 8 24 5 29 -3 6 0 10 7 10 7 1 2 7 -12 15 -31
17 -46 5 -30 -24 20 -38 1 -40 -35 -4 -46 46 -48 64 -7 85 41 20 82 9 112 -29
11 -14 20 -21 20 -15 0 6 -13 26 -29 44 -16 19 -31 40 -32 48 -3 11 63 94 79
99 1 1 19 -18 40 -40z"/>
</g>
</svg>
