<svg width="16" height="16" viewBox="0 0 16 16" fill="none" xmlns="http://www.w3.org/2000/svg">
<path fill-rule="evenodd" clip-rule="evenodd" d="M9.90208 7.99955L15.6067 2.29495C16.1318 1.76984 16.1318 0.918463 15.6067 0.393423C15.0816 -0.131692 14.2303 -0.131692 13.7051 0.393423L8.00047 6.09809L2.2958 0.393348C1.77069 -0.131767 0.919383 -0.131767 0.394268 0.393348C-0.130772 0.918463 -0.130772 1.76984 0.394268 2.29488L6.09894 7.99947L0.394268 13.7041C-0.130772 14.2293 -0.130772 15.0806 0.394268 15.6057C0.919383 16.1308 1.77069 16.1308 2.2958 15.6057L8.00047 9.90101L13.7051 15.6057C14.2302 16.1308 15.0816 16.1308 15.6067 15.6057C16.1318 15.0806 16.1318 14.2293 15.6067 13.7041L9.90208 7.99955Z" fill="#3E4649"/>
</svg>
