<svg width="32" height="32" viewBox="0 0 32 32" fill="none" xmlns="http://www.w3.org/2000/svg">
<path fill-rule="evenodd" clip-rule="evenodd" d="M16.4999 4C12.4031 4 8.2965 4.73319 6.80645 6.19456C5.57017 7.40695 5.15806 9.54877 5.01914 10.9049C5.01914 10.9049 5 11.0389 5 11.0965C5 11.6283 5.43115 12.0548 5.95828 12.0548C6.02057 12.0548 8.32535 11.8679 9.71489 11.7529C9.74833 11.7481 9.78203 11.7433 9.81546 11.7338C10.333 11.7195 10.75 11.2977 10.75 10.7755L10.7546 8.88752C10.7546 8.30295 11.2292 7.8333 11.8138 7.8333H21.186C21.7707 7.8333 22.2453 8.3029 22.2453 8.88752L22.25 10.7755C22.25 11.2977 22.6669 11.7195 23.1844 11.7338C23.2177 11.7434 23.2514 11.7481 23.2852 11.7529C24.6748 11.8679 26.9795 12.0548 27.0416 12.0548C27.5685 12.0548 28 11.6283 28 11.0965C28 11.0389 27.9809 10.9049 27.9809 10.9049C27.8418 9.54877 27.4302 7.407 26.1939 6.19456C24.7033 4.73319 20.5967 4 16.4999 4ZM16.4999 16.4584C15.441 16.4584 14.5833 17.316 14.5833 18.375C14.5833 19.434 15.441 20.2916 16.4999 20.2916C17.5589 20.2916 18.4165 19.434 18.4165 18.375C18.4165 17.316 17.5589 16.4584 16.4999 16.4584ZM15.0624 12.1458V10.9479C15.0624 10.2867 14.5257 9.75003 13.8646 9.75003C13.2034 9.75003 12.6667 10.2868 12.6667 10.9479V12.1458L6.20247 19.0507C5.75703 19.4868 5.47904 20.0951 5.47904 20.7661V22.6876C5.47904 23.7466 6.3368 24.6042 7.39571 24.6042H7.8749V25.8022C7.8749 26.4634 8.41169 27 9.07283 27C9.73398 27 10.2707 26.4634 10.2707 25.8022V24.6042H22.7291V25.8022C22.7291 26.4634 23.2657 27 23.9271 27C24.5883 27 25.1249 26.4634 25.1249 25.8022V24.6042H25.6041C26.663 24.6042 27.5207 23.7466 27.5207 22.6876V20.7661C27.5207 20.0951 27.2428 19.4867 26.7973 19.0507L20.3333 12.1458V10.9479C20.3333 10.2867 19.7965 9.75003 19.1353 9.75003C18.4742 9.75003 17.9375 10.2868 17.9375 10.9479V12.1458H15.0624ZM16.4999 14.5417C18.6178 14.5417 20.3333 16.2571 20.3333 18.375C20.3333 20.4929 18.6179 22.2085 16.4999 22.2085C14.382 22.2085 12.6666 20.493 12.6666 18.375C12.6666 16.2571 14.382 14.5417 16.4999 14.5417Z" fill="#1C68C3"/>
</svg>
