<svg width="32" height="32" viewBox="0 0 32 32" fill="none" xmlns="http://www.w3.org/2000/svg">
<path d="M21.1875 3H11.8125C7.49844 3 4 6.49844 4 10.8125V20.1875C4 24.5016 7.49844 28 11.8125 28H21.1875C25.5016 28 29 24.5016 29 20.1875V10.8125C29 6.49844 25.5016 3 21.1875 3ZM26.6562 20.1875C26.6562 23.2031 24.2031 25.6562 21.1875 25.6562H11.8125C8.79688 25.6562 6.34375 23.2031 6.34375 20.1875V10.8125C6.34375 7.79688 8.79688 5.34375 11.8125 5.34375H21.1875C24.2031 5.34375 26.6562 7.79688 26.6562 10.8125V20.1875Z" fill="#1C68C3"/>
<path d="M16.5 9.25C13.0484 9.25 10.25 12.0484 10.25 15.5C10.25 18.9516 13.0484 21.75 16.5 21.75C19.9516 21.75 22.75 18.9516 22.75 15.5C22.75 12.0484 19.9516 9.25 16.5 9.25ZM16.5 19.4062C14.3469 19.4062 12.5938 17.6531 12.5938 15.5C12.5938 13.3453 14.3469 11.5938 16.5 11.5938C18.6531 11.5938 20.4062 13.3453 20.4062 15.5C20.4062 17.6531 18.6531 19.4062 16.5 19.4062Z" fill="#1C68C3"/>
<path d="M23.2188 9.61386C23.6787 9.61386 24.0516 9.241 24.0516 8.78105C24.0516 8.3211 23.6787 7.94824 23.2188 7.94824C22.7588 7.94824 22.386 8.3211 22.386 8.78105C22.386 9.241 22.7588 9.61386 23.2188 9.61386Z" fill="#1C68C3"/>
</svg>
