<svg width="32" height="32" viewBox="0 0 32 32" fill="none" xmlns="http://www.w3.org/2000/svg">
<path d="M6.93343 22.3998H25.0667C25.8 22.3998 26.4275 22.1389 26.9497 21.6163C27.4721 21.0939 27.7332 20.4664 27.7332 19.7332V8.00003C27.7332 7.26666 27.4721 6.63912 26.9497 6.11678C26.4275 5.59449 25.8001 5.3335 25.0667 5.3335H6.93343C6.20012 5.3335 5.57223 5.59449 5.05 6.11678C4.52772 6.63906 4.26672 7.26666 4.26672 8.00003V19.7333C4.26672 20.4665 4.52772 21.0942 5.05 21.6164C5.57223 22.1385 6.20012 22.3998 6.93343 22.3998ZM6.39988 8.00003C6.39988 7.85561 6.45271 7.73039 6.55825 7.62508C6.66397 7.51966 6.78901 7.46677 6.93343 7.46677H25.0663C25.2109 7.46677 25.3359 7.51954 25.4415 7.62508C25.5467 7.73068 25.5995 7.85561 25.5995 8.00003V19.7333C25.5995 19.8776 25.5467 20.0028 25.4415 20.1081C25.3359 20.2136 25.2109 20.2665 25.0663 20.2665H6.93325C6.78877 20.2665 6.66373 20.2138 6.55807 20.1081C6.45271 20.0024 6.39988 19.8776 6.39988 19.7333V8.00003Z" fill="#1C68C3"/>
<path d="M29.3334 23.4668H2.66665H0V25.0665C0 25.5112 0.260996 25.8888 0.783223 26.1998C1.30574 26.5108 1.93334 26.6665 2.66665 26.6665H29.3334C30.0666 26.6665 30.6943 26.5108 31.2165 26.1998C31.7387 25.8888 32 25.5112 32 25.0665V23.4668H29.3334ZM17.3333 25.0665H14.6666C14.4891 25.0665 14.4002 24.9774 14.4002 24.7999C14.4002 24.622 14.4891 24.5328 14.6666 24.5328H17.3333C17.511 24.5328 17.6001 24.622 17.6001 24.7999C17.6001 24.9774 17.511 25.0665 17.3333 25.0665Z" fill="#1C68C3"/>
</svg>
