<svg width="32" height="32" viewBox="0 0 32 32" fill="none" xmlns="http://www.w3.org/2000/svg">
<path d="M28 21.9999C28 22.5261 27.852 23.0138 27.6149 23.443L20.0371 14.9645L27.5328 8.40648C27.8244 8.86921 28 9.41276 28 10.0001V21.9999ZM16 16.5039L26.4299 7.378C26.0019 7.14369 25.52 7 25.0001 7H6.99998C6.47943 7 5.99732 7.14369 5.57104 7.378L16 16.5039ZM18.9078 15.9518L16.4936 18.0656C16.3524 18.1886 16.1765 18.25 16 18.25C15.8234 18.25 15.6476 18.1886 15.5064 18.0656L13.0916 15.9517L5.41796 24.5386C5.87791 24.8271 6.41696 25 6.99993 25H25.0001C25.5829 25 26.1222 24.8271 26.582 24.5386L18.9078 15.9518ZM4.46733 8.40643C4.17579 8.86916 4 9.41271 4 10.0001V22C4 22.5261 4.1473 23.0139 4.38527 23.443L11.9622 14.9631L4.46733 8.40643Z" fill="#1C68C3"/>
</svg>
