<svg width="32" height="32" viewBox="0 0 32 32" fill="none" xmlns="http://www.w3.org/2000/svg">
<path d="M21.663 5.16604C21.1263 5.16604 20.6916 4.73059 20.6916 4.19415V2.97189C20.6916 2.43497 20.256 2 19.7197 2H19.0715C18.5343 2 18.0996 2.43497 18.0996 2.97189V4.19462C18.0996 4.73107 17.6639 5.16651 17.1277 5.16651H10.9719C10.435 5.16651 10 5.60141 10 6.13841V28.0282C10 28.5644 10.4349 29 10.9719 29H21.6625C22.1988 29 22.6344 28.5644 22.6344 28.0282V6.13785C22.6344 5.60133 22.1998 5.16604 21.663 5.16604ZM12.126 23.9982C12.126 23.4615 12.5609 23.0263 13.0979 23.0263C13.6344 23.0263 14.0698 23.4615 14.0698 23.9982C14.0698 24.5344 13.6344 24.9701 13.0979 24.9701C12.5609 24.9701 12.126 24.5345 12.126 23.9982ZM13.0978 19.807C13.6344 19.807 14.0697 20.2421 14.0697 20.7789C14.0697 21.3151 13.6344 21.7508 13.0978 21.7508C12.5609 21.7508 12.1259 21.3151 12.1259 20.7789C12.126 20.2421 12.5609 19.807 13.0978 19.807ZM12.126 17.5596C12.126 17.0228 12.5609 16.5877 13.0979 16.5877C13.6344 16.5877 14.0698 17.0228 14.0698 17.5596C14.0698 18.0958 13.6344 18.5315 13.0979 18.5315C12.5609 18.5315 12.126 18.0958 12.126 17.5596ZM18.2914 27.3467H14.2214C13.9526 27.3467 13.7354 27.1294 13.7354 26.8608C13.7354 26.5922 13.9526 26.3749 14.2214 26.3749H18.2914C18.5599 26.3749 18.7773 26.5922 18.7773 26.8608C18.7773 27.1289 18.5599 27.3467 18.2914 27.3467ZM16.2565 19.807C16.793 19.807 17.2284 20.2421 17.2284 20.7789C17.2284 21.3151 16.793 21.7508 16.2565 21.7508C15.7195 21.7508 15.2846 21.3151 15.2846 20.7789C15.2846 20.2421 15.7195 19.807 16.2565 19.807ZM15.2846 17.5596C15.2846 17.0228 15.7194 16.5877 16.2564 16.5877C16.7929 16.5877 17.2283 17.0228 17.2283 17.5596C17.2283 18.0958 16.7929 18.5315 16.2564 18.5315C15.7195 18.5315 15.2846 18.0958 15.2846 17.5596ZM16.2565 23.0264C16.793 23.0264 17.2284 23.4616 17.2284 23.9983C17.2284 24.5345 16.793 24.9702 16.2565 24.9702C15.7195 24.9702 15.2846 24.5345 15.2846 23.9983C15.2846 23.4615 15.7195 23.0264 16.2565 23.0264ZM19.4151 24.9701C18.8778 24.9701 18.4432 24.5344 18.4432 23.9982C18.4432 23.4615 18.8778 23.0263 19.4151 23.0263C19.9513 23.0263 20.387 23.4615 20.387 23.9982C20.387 24.5345 19.9513 24.9701 19.4151 24.9701ZM19.4151 21.7508C18.8778 21.7508 18.4432 21.3151 18.4432 20.7789C18.4432 20.2421 18.8778 19.807 19.4151 19.807C19.9513 19.807 20.387 20.2421 20.387 20.7789C20.387 21.3151 19.9513 21.7508 19.4151 21.7508ZM19.4151 18.5315C18.8778 18.5315 18.4432 18.0958 18.4432 17.5596C18.4432 17.0228 18.8778 16.5877 19.4151 16.5877C19.9513 16.5877 20.387 17.0228 20.387 17.5596C20.387 18.0958 19.9513 18.5315 19.4151 18.5315ZM20.9944 13.7776C20.9944 14.3143 20.5588 14.7495 20.0225 14.7495H12.6119C12.075 14.7495 11.64 14.3143 11.64 13.7776V8.41869C11.64 7.88177 12.0749 7.44688 12.6119 7.44688H20.0225C20.5588 7.44688 20.9944 7.88177 20.9944 8.41869V13.7776Z" fill="#1C68C3"/>
</svg>
